<?xml version="1.0" encoding="iso-8859-1"?>
<!-- Generator: Adobe Illustrator 17.1.0, SVG Export Plug-In . SVG Version: 6.00 Build 0)  -->
<!DOCTYPE svg PUBLIC "-//W3C//DTD SVG 1.1//EN" "http://www.w3.org/Graphics/SVG/1.1/DTD/svg11.dtd">
<svg version="1.1" id="Capa_1" xmlns="http://www.w3.org/2000/svg" xmlns:xlink="http://www.w3.org/1999/xlink" x="0px" y="0px"
	 viewBox="0 0 185.261 185.261" style="enable-background:new 0 0 185.261 185.261;" xml:space="preserve">
<path d="M113.663,90.939l-2.726,2.727l21.253,21.253c0.002,0.001,0.003,0.003,0.005,0.004l42.818,42.818
	c2.681,2.681,4.157,6.247,4.157,10.039c0,3.792-1.477,7.357-4.158,10.039c-2.681,2.681-6.246,4.158-10.038,4.158
	s-7.357-1.477-10.039-4.158l-35.923-35.923l-2.934,2.934c-2.093,2.093-4.876,3.247-7.836,3.247c-2.713,0-5.324-0.993-7.353-2.797
	c-4.202-3.735-12.235-10.96-21.691-19.875l-55.852,55.852c-2.583,2.583-6.017,4.005-9.67,4.005c-3.653,0-7.087-1.422-9.67-4.005
	S0,175.238,0,171.586s1.422-7.087,4.005-9.67L59.58,106.34C49.406,96.104,39.366,85.356,31.777,75.826
	C14.18,53.732,8.204,28.26,6.208,15.044c-0.446-2.953,0.405-5.933,2.334-8.175c1.959-2.277,4.805-3.583,7.806-3.583
	c2.713,0,5.275,1.068,7.214,3.006l68.033,68.033l2.73-2.729c-2.755-9.127-0.754-19.166,6.139-26.059l43.34-43.339
	c2.93-2.929,7.678-2.929,10.607,0c2.929,2.929,2.929,7.678,0,10.606L116.375,50.84l3.72,3.72l38.035-38.036
	c2.93-2.929,7.678-2.929,10.607,0c2.929,2.929,2.929,7.678,0,10.606l-38.036,38.036l3.719,3.72l38.036-38.036
	c2.931-2.929,7.679-2.929,10.607,0c2.929,2.929,2.929,7.678,0,10.606l-43.34,43.339c-0.003,0.003-0.007,0.006-0.01,0.009
	c-4.742,4.738-11.147,7.348-18.033,7.348c-0.001,0,0,0-0.001,0C118.969,92.154,116.265,91.733,113.663,90.939z"/>
<g>
</g>
<g>
</g>
<g>
</g>
<g>
</g>
<g>
</g>
<g>
</g>
<g>
</g>
<g>
</g>
<g>
</g>
<g>
</g>
<g>
</g>
<g>
</g>
<g>
</g>
<g>
</g>
<g>
</g>
</svg>
